<?xml version="1.0" encoding="utf-8"?>
<!-- Generator: Adobe Illustrator 23.0.1, SVG Export Plug-In . SVG Version: 6.00 Build 0)  -->
<svg version="1.1" id="svg3932" xmlns:svg="http://www.w3.org/2000/svg"
	 xmlns="http://www.w3.org/2000/svg" xmlns:xlink="http://www.w3.org/1999/xlink" x="0px" y="0px" width="645.3px" height="166px"
	 viewBox="0 0 645.3 166" enable-background="new 0 0 645.3 166" xml:space="preserve">
<g>
	<g>
		<path fill="#00ABF2" d="M295,114.2c-5.3,16.8-15,30.7-28,39.8l11.6,11.6l33.9-33.9L295,114.2z"/>
		<path fill="#00ABF2" d="M192.5,11.6L180.9,0L147,33.9l17.5,17.5C169.7,34.6,179.4,20.7,192.5,11.6"/>
		<path fill="#029744" d="M195.8,82.3c0-22.3,7.4-40,20.3-47.1l-23.6-23.6c-13.1,9.1-22.7,23-28,39.8l31.4,31.4V82.3z"/>
		<path fill="#029744" d="M295,114.2l-31.4-31.4v0.4c0,22.2-7.3,40-20.3,47.1l23.7,23.7C280.1,144.9,289.7,131,295,114.2"/>
		<path fill="#00ABF2" d="M216.1,35.3c-12.9,7.1-20.3,24.7-20.3,47.1v0.4v0l33.9-33.9L216.1,35.3z"/>
		<path fill="#00ABF2" d="M229.7,116.7l13.6,13.6c13-7.1,20.3-24.9,20.3-47.1v-0.4l0,0L229.7,116.7z"/>
		<path fill="#FBD700" d="M229.9,0.2c-14.3,0-27,4.1-37.5,11.4l23.6,23.6c4-2.2,8.4-3.4,13.4-3.4c5,0,9.6,1.2,13.6,3.6l24-24
			C256.7,4.3,244.2,0.2,229.9,0.2"/>
		<path fill="#FBD700" d="M263.7,82.7L263.7,82.7L263.7,82.7l31.4,31.4c3-9.6,4.7-20.2,4.7-31.4v-0.5c0-11.1-1.6-21.5-4.6-31.1
			L263.7,82.7z"/>
		<path fill="#ED028D" d="M243.1,35.4l-13.4,13.4l33.9,33.9l0,0C263.6,60.7,256,42.8,243.1,35.4"/>
		<path fill="#ED028D" d="M295.1,51.3l17.3-17.3L278.6,0l-11.4,11.4C280.2,20.5,289.9,34.4,295.1,51.3"/>
		<path fill="#C0101E" d="M267.1,11.4l-24,24c12.9,7.3,20.5,25.2,20.6,47.3l31.5-31.5C289.9,34.4,280.2,20.5,267.1,11.4"/>
		<path fill="#FBD700" d="M195.8,82.8L195.8,82.8l-31.4-31.4c-3,9.6-4.7,20.2-4.7,31.4v0.5c0,11.1,1.6,21.6,4.5,31.1L195.8,82.8
			L195.8,82.8z"/>
		<path fill="#FBD700" d="M267,153.9l-23.7-23.7c-3.9,2.2-8.4,3.3-13.4,3.3c-5.1,0-9.6-1.2-13.7-3.5l-24.1,24
			c10.4,7.1,22.9,11.2,37.3,11.2C243.9,165.3,256.5,161.2,267,153.9"/>
		<path fill="#ED028D" d="M164.3,114.3L147,131.6l33.9,33.9l11.3-11.3C179.1,145.2,169.5,131.2,164.3,114.3"/>
		<path fill="#ED028D" d="M216.3,130.1l13.5-13.4l-33.9-33.9v0C195.8,105,203.3,122.9,216.3,130.1"/>
		<path fill="#C0101E" d="M195.8,82.8l-31.5,31.5c5.2,16.9,14.8,30.9,28,39.9l24-24C203.3,122.9,195.8,105,195.8,82.8"/>
		<polygon fill="#3F389D" points="229.7,48.8 195.8,82.8 229.7,116.7 263.6,82.8 		"/>
	</g>
	<g>
		<path fill="#ED028D" d="M617.8,21.8L615.4,38h-42.1l0,0c16.9,4,30.2,17.1,34.4,33.9c9.9,8.2,15.6,20.8,15.6,38.7
			c0,36-26.9,55.3-60.8,55.4v0c45.7,0,82.7-37,82.7-82.7C645.3,58.9,634.7,37,617.8,21.8"/>
		<path fill="#ED008C" d="M562.6,0.7v8.4h36.3C588,3.7,575.7,0.7,562.6,0.7"/>
		<path fill="#ED008C" d="M562.6,36.8L562.6,36.8L562.6,36.8z"/>
		<path fill="#00ABF2" d="M516.5,76.9L516.5,76.9c-0.3,2.1-0.5,4.2-0.5,6.4c0,25.7,20.9,46.6,46.6,46.6V89.8c-6,0-12.8,1.8-18,5
			L516.5,76.9z"/>
		<path fill="#00ABF2" d="M549.4,62.1c4.6-1.1,7.9-1.7,13.2-1.9V36.8c-3.4,0-6.6,0.4-9.7,1L549.4,62.1z"/>
		<path fill="#FBD700" d="M607.8,71.9c-9.8-8.1-23.8-11.8-40.7-11.8c-1.6,0-3.1,0-4.5,0.1v29.6c18.3,0,28.4,8.2,28.4,20.7
			c0,10.8-11.4,18.4-25.5,19.4c24.4-1.5,43.6-21.8,43.6-46.5C609.2,79.4,608.7,75.6,607.8,71.9"/>
		<path fill="#029744" d="M549.4,62.1l3.5-24.3c-19,4-33.7,19.7-36.4,39.1l28.2,17.8c5.2-3.1,12-4.9,18-4.9V60.2
			C557.3,60.4,554,61,549.4,62.1"/>
		<polygon fill="#404099" points="562.6,36.8 562.6,36.8 562.6,36.8 		"/>
		<polygon fill="#404099" points="562.6,166 562.6,166 562.6,166 		"/>
		<path fill="#3F389D" d="M526.1,9.2c-27.3,13.5-46.1,41.6-46.1,74.2c0,22.5,9,42.8,23.5,57.7c15,15.4,36,24.9,59.1,24.9l0,0v-36
			c-14.2,0-26.9-6.4-35.5-16.4c-6.9-8.1-11.1-18.7-11.1-30.2c0-2.2,0.2-4.3,0.5-6.4c2.7-19.5,17.4-35.1,36.4-39.1
			c3.1-0.7,6.4-1,9.7-1l0,0V9.1V9V0.7c-13,0-25.3,3-36.2,8.3L526.1,9.2z"/>
		<path d="M552.9,37.8L552.9,37.8c3.1-0.7,6.4-1,9.7-1l0,0V9h-36.2l-0.2,0.1l-9.8,67.8l0,0l0,0C519.2,57.5,533.9,41.9,552.9,37.8"/>
		<path d="M503.4,141c0,0,0,0.1,0,0.1c15,15.4,36,24.9,59.1,24.9l0-36.1c-14.2,0-26.9-6.4-35.5-16.4h0L503.4,141z"/>
		<path fill="#C0101E" d="M623.4,110.6c0-17.8-5.7-30.5-15.6-38.7c0.9,3.7,1.4,7.5,1.4,11.5c0,24.7-19.3,45-43.6,46.5
			c-0.8,0-2,0.1-3,0.1v36C596.5,165.9,623.4,146.6,623.4,110.6"/>
		<path fill="#C0101E" d="M562.6,36.8c3.7,0,7.3,0.5,10.7,1.3l0,0h42.1l2.3-16.2c-5.6-5.1-12.3-9.4-19-12.8h-36.2V36.8L562.6,36.8z"
			/>
	</g>
	<g>
		<rect x="344.4" y="114" fill="#ED028D" width="49.1" height="48.8"/>
		<path fill="#00ABF2" d="M456.1,57.3c0-16.2-7.7-37-27.9-47.6v97.2C445.5,98.3,456.1,82,456.1,57.3"/>
		<path fill="#FBD700" d="M393.5,162.7h34.7v-55.9c-9.7,4.8-21.5,7.2-34.7,7.2V162.7z"/>
		<path fill="#029744" d="M428.2,9.6c-8.1-4.3-18.2-6.9-30.7-6.9h-4v56.5V114c13.2,0,25-2.4,34.7-7.2V9.6z"/>
		<polygon fill="#3F389D" points="393.5,2.7 344.4,2.7 344.4,114 393.5,114 393.5,2.7 		"/>
		<path d="M353.4,36.7v22.7h40.1V2.7C393.5,26.9,379.3,36.7,353.4,36.7"/>
	</g>
	<g>
		<path fill="#FBD700" d="M22.3,59c5.4-7.2,11-13.2,16.7-17.5H0L22.3,59z"/>
		<path fill="#ED028D" d="M86.5,102.9h29V62.4C112.5,78.2,102.9,89.3,86.5,102.9"/>
		<path fill="#ED028D" d="M79.3,62.1H0v40.8h39.1l14.1-11.5C68.1,79,76.2,71,79.3,62.1"/>
		<path fill="#FBD700" d="M116.6,50.1c0-3-0.2-5.8-0.6-8.5H77.6c2.1,2.8,3.2,6.6,3.2,11.5c0,3.2-0.5,6.2-1.5,9.1h36.2v0.3
			c0.7-3.7,1.1-7.6,1.1-11.9V50.1z"/>
		<path fill="#C0101E" d="M79.3,62.1C76.2,71,68.1,79,53.2,91.3l-14.1,11.5h47.4c16.4-13.6,26-24.7,29-40.5v-0.3H79.3z"/>
		<path fill="#FBD700" d="M74.6,112.3c4.3-3.3,8.3-6.5,11.9-9.4H39.1l-25.7,21h46.2L74.6,112.3z"/>
		<polygon fill="#00ABF2" points="59.6,123.9 48.6,132.4 115.5,132.4 115.5,123.9 		"/>
		<polygon fill="#00ABF2" points="0,123.9 0,134.9 13.4,123.9 		"/>
		<polygon fill="#029744" points="59.6,123.9 13.4,123.9 0,134.9 0,162.7 115.5,162.7 115.5,132.4 48.6,132.4 		"/>
		<path fill="#00ABF2" d="M59.6,34.2c-7.1-0.2-14,2.4-20.6,7.3h38.6C74,36.6,67.6,34.5,59.6,34.2"/>
		<path fill="#00ABF2" d="M115.9,41.6L115.9,41.6l0-38.8H61.3C91.1,2.7,112.1,16.9,115.9,41.6"/>
		<path fill="#00ABF2" d="M61.3,2.7H0v38.8C13.9,19.1,32.7,2.7,61.3,2.7"/>
		<path fill="#029744" d="M61.3,2.7C32.7,2.7,13.9,19.1,0,41.6h39c6.6-4.9,13.4-7.6,20.6-7.3c8,0.3,14.4,2.4,18,7.3h38.4
			C112.1,16.9,91.1,2.7,61.3,2.7"/>
	</g>
</g>
</svg>
